<svg width="28" height="28" viewBox="0 0 28 28" fill="none" xmlns="http://www.w3.org/2000/svg">
<path d="M14 1.8667C13.2574 1.8667 12.5452 2.1617 12.0201 2.6868C11.495 3.2119 11.2 3.92409 11.2 4.6667C11.2 5.40931 11.495 6.1215 12.0201 6.6466C12.5452 7.1717 13.2574 7.4667 14 7.4667C14.7426 7.4667 15.4548 7.1717 15.9799 6.6466C16.505 6.1215 16.8 5.40931 16.8 4.6667C16.8 3.92409 16.505 3.2119 15.9799 2.6868C15.4548 2.1617 14.7426 1.8667 14 1.8667ZM10.9794 5.60186C10.5705 5.61756 9.6807 5.72296 9.1018 6.30186C8.32993 7.07372 8.4018 8.39821 8.4018 8.39821C8.4018 8.39821 9.72628 8.47008 10.4981 7.69821C11.27 6.92634 11.1981 5.60186 11.1981 5.60186C11.1981 5.60186 11.1157 5.59662 10.9794 5.60186ZM16.8018 5.60186C16.8018 5.60186 16.7299 6.92634 17.5018 7.69821C18.2737 8.47008 19.5981 8.39821 19.5981 8.39821C19.5981 8.39821 19.67 7.07372 18.8981 6.30186C18.1263 5.52999 16.8018 5.60186 16.8018 5.60186ZM14 9.33337C12.4797 9.33337 11.144 10.3757 10.7752 11.8508L9.36065 17.5073C9.32638 17.6449 9.32391 17.7886 9.35343 17.9273C9.38294 18.066 9.44367 18.1961 9.53099 18.3079C9.61831 18.4196 9.72994 18.51 9.8574 18.5722C9.98487 18.6344 10.1248 18.6667 10.2666 18.6667H17.7078C17.7163 18.6668 17.7248 18.6668 17.7333 18.6667C17.8751 18.6667 18.0151 18.6344 18.1425 18.5722C18.27 18.51 18.3816 18.4196 18.469 18.3079C18.5563 18.1961 18.617 18.066 18.6465 17.9273C18.676 17.7886 18.6736 17.6449 18.6393 17.5073L17.2247 11.8508C16.8559 10.3757 15.5203 9.33337 14 9.33337ZM11.2 20.5334V24.2357C11.2 24.7677 11.6323 25.2 12.1643 25.2C12.672 25.2 13.0932 24.8054 13.1268 24.2995L13.3765 20.5334H11.2ZM14.6234 20.5334L14.8731 24.2995C14.9067 24.8063 15.3279 25.2 15.8356 25.2C16.3676 25.2 16.8 24.7677 16.8 24.2357V20.5334H14.6234Z" fill="white"/>
</svg>
