<svg width="28" height="28" viewBox="0 0 28 28" fill="none" xmlns="http://www.w3.org/2000/svg">
<path d="M8.38544 1.85387C8.13822 1.85774 7.90264 1.95953 7.73039 2.1369C7.55814 2.31428 7.4633 2.55274 7.46669 2.79997V3.7333H6.53335C6.40968 3.73155 6.28688 3.7544 6.17211 3.80052C6.05734 3.84664 5.95288 3.91511 5.8648 4.00195C5.77673 4.08879 5.70679 4.19227 5.65905 4.30638C5.61131 4.42049 5.58673 4.54294 5.58673 4.66663C5.58673 4.79032 5.61131 4.91278 5.65905 5.02689C5.70679 5.14099 5.77673 5.24448 5.8648 5.33132C5.95288 5.41816 6.05734 5.48663 6.17211 5.53275C6.28688 5.57887 6.40968 5.60172 6.53335 5.59997H7.46669V6.5333C7.46494 6.65698 7.48779 6.77977 7.53391 6.89454C7.58003 7.00931 7.6485 7.11377 7.73534 7.20185C7.82218 7.28993 7.92566 7.35987 8.03977 7.40761C8.15387 7.45534 8.27633 7.47993 8.40002 7.47993C8.52371 7.47993 8.64617 7.45534 8.76027 7.40761C8.87438 7.35987 8.97786 7.28993 9.0647 7.20185C9.15154 7.11377 9.22001 7.00931 9.26613 6.89454C9.31225 6.77977 9.3351 6.65698 9.33335 6.5333V5.59997H10.2667C10.3904 5.60172 10.5132 5.57887 10.6279 5.53275C10.7427 5.48663 10.8472 5.41816 10.9352 5.33132C11.0233 5.24448 11.0933 5.14099 11.141 5.02689C11.1887 4.91278 11.2133 4.79032 11.2133 4.66663C11.2133 4.54294 11.1887 4.42049 11.141 4.30638C11.0933 4.19227 11.0233 4.08879 10.9352 4.00195C10.8472 3.91511 10.7427 3.84664 10.6279 3.80052C10.5132 3.7544 10.3904 3.73155 10.2667 3.7333H9.33335V2.79997C9.33506 2.6751 9.3117 2.55115 9.26464 2.43548C9.21759 2.3198 9.1478 2.21474 9.05941 2.12652C8.97102 2.0383 8.86583 1.96871 8.75006 1.92188C8.63429 1.87505 8.5103 1.85192 8.38544 1.85387ZM24.8664 2.80544L22.1539 3.54554C21.7479 3.65661 21.4667 4.02513 21.4667 4.44606V8.78096C21.4667 9.94482 18.6667 9.08493 18.6667 11.5153C18.6667 12.4487 19.2196 13.0666 20.2836 13.0666C21.9263 13.0666 22.4 11.8185 22.4 10.4325V5.96091L24.9667 5.19346C25.102 5.16639 25.2 5.04722 25.2 4.90908V3.07887C25.2 2.90247 25.0391 2.7709 24.8664 2.80544ZM13.2052 7.46846C9.79203 8.78912 7.46669 12.1928 7.46669 16.0726C7.46669 21.1136 11.5531 25.2 16.594 25.2C20.4739 25.2 23.8784 22.8755 25.2 19.4632C24.178 19.859 22.9705 19.9846 21.8094 19.9846C16.7685 19.9846 12.6839 15.8982 12.6839 10.8573C12.6839 9.69619 12.8095 8.48952 13.2052 7.46846ZM3.71877 8.38721C3.47155 8.39107 3.23597 8.49286 3.06372 8.67024C2.89147 8.84761 2.79663 9.08608 2.80002 9.3333C2.67634 9.33155 2.55355 9.3544 2.43878 9.40052C2.32401 9.44664 2.21955 9.51511 2.13147 9.60195C2.04339 9.68879 1.97345 9.79227 1.92571 9.90638C1.87798 10.0205 1.85339 10.1429 1.85339 10.2666C1.85339 10.3903 1.87798 10.5128 1.92571 10.6269C1.97345 10.741 2.04339 10.8445 2.13147 10.9313C2.21955 11.0182 2.32401 11.0866 2.43878 11.1327C2.55355 11.1789 2.67634 11.2017 2.80002 11.2C2.79827 11.3236 2.82112 11.4464 2.86724 11.5612C2.91336 11.676 2.98183 11.7804 3.06867 11.8685C3.15551 11.9566 3.25899 12.0265 3.3731 12.0743C3.48721 12.122 3.60966 12.1466 3.73335 12.1466C3.85704 12.1466 3.9795 12.122 4.09361 12.0743C4.20771 12.0265 4.31119 11.9566 4.39804 11.8685C4.48488 11.7804 4.55335 11.676 4.59947 11.5612C4.64559 11.4464 4.66844 11.3236 4.66669 11.2C4.79036 11.2017 4.91316 11.1789 5.02793 11.1327C5.1427 11.0866 5.24716 11.0182 5.33524 10.9313C5.42331 10.8445 5.49325 10.741 5.54099 10.6269C5.58873 10.5128 5.61331 10.3903 5.61331 10.2666C5.61331 10.1429 5.58873 10.0205 5.54099 9.90638C5.49325 9.79227 5.42331 9.68879 5.33524 9.60195C5.24716 9.51511 5.1427 9.44664 5.02793 9.40052C4.91316 9.3544 4.79036 9.33155 4.66669 9.3333C4.6684 9.20843 4.64503 9.08449 4.59798 8.96881C4.55092 8.85313 4.48113 8.74807 4.39274 8.65985C4.30435 8.57163 4.19916 8.50205 4.08339 8.45522C3.96762 8.40838 3.84364 8.38526 3.71877 8.38721Z" fill="white"/>
</svg>
