<svg width="28" height="28" viewBox="0 0 28 28" fill="none" xmlns="http://www.w3.org/2000/svg">
<path d="M9.33338 2.80005C8.30205 2.80005 7.46672 3.63538 7.46672 4.66672C5.92018 4.66672 4.66672 5.92018 4.66672 7.46672C4.66672 7.55072 4.68477 7.63068 4.69224 7.71281C4.1229 8.03294 3.73338 8.63432 3.73338 9.33338C3.73338 9.55552 3.77912 9.76624 3.85005 9.96411C3.21445 10.4774 2.80005 11.2532 2.80005 12.1334C2.80005 12.9771 3.18086 13.7255 3.77166 14.2389C3.19486 14.5571 2.80005 15.162 2.80005 15.8667C2.80005 16.898 3.63538 17.7334 4.66672 17.7334C4.66672 19.2799 5.92018 20.5334 7.46672 20.5334H8.40005V24.2667C8.40005 24.7819 8.81818 25.2 9.33338 25.2C9.84858 25.2 10.2667 24.7819 10.2667 24.2667V20.5334C10.2667 19.9631 10.4531 19.4007 10.8245 18.8836L12.1826 17.0607C11.5815 16.5474 11.2 15.7846 11.2 14.9334C11.2 14.2679 11.4387 13.6282 11.8745 13.1196L13.5407 10.8902C13.242 10.444 13.0667 9.90832 13.0667 9.33338C13.0667 8.83032 13.2096 8.34065 13.4915 7.88052C13.5204 7.83292 13.5526 7.78678 13.5862 7.74198L14.6399 6.32557C14.4196 6.14917 14.1766 5.99651 13.9144 5.88078C13.6194 4.65064 12.5207 3.73338 11.2 3.73338C11.116 3.73338 11.0361 3.75144 10.954 3.7589C10.6338 3.18957 10.0324 2.80005 9.33338 2.80005ZM18.6667 4.66672C18.3372 4.66672 18.0618 4.84751 17.8956 5.10604L17.881 5.09692L15.0829 8.85578C14.9961 8.99671 14.9334 9.15512 14.9334 9.33338C14.9334 9.84858 15.3515 10.2667 15.8667 10.2667H16.3334L13.3237 14.299C13.1669 14.4661 13.0667 14.687 13.0667 14.9334C13.0667 15.4486 13.4848 15.8667 14 15.8667H15.4L12.3211 19.9993C12.211 20.1523 12.1334 20.3308 12.1334 20.5334C12.1334 21.0486 12.5515 21.4667 13.0667 21.4667H17.7334V24.2667C17.7334 24.7819 18.1515 25.2 18.6667 25.2C19.1819 25.2 19.6 24.7819 19.6 24.2667V21.4667H24.2667C24.7819 21.4667 25.2 21.0486 25.2 20.5334C25.2 20.3308 25.1224 20.1523 25.0123 19.9993L21.9334 15.8667H23.3334C23.8486 15.8667 24.2667 15.4486 24.2667 14.9334C24.2667 14.687 24.1665 14.4661 24.0097 14.299L21 10.2667H21.4667C21.9819 10.2667 22.4 9.84858 22.4 9.33338C22.4 9.15512 22.3374 8.99671 22.2506 8.85578L19.4524 5.09692L19.4378 5.10604C19.2717 4.84751 18.9962 4.66672 18.6667 4.66672Z" fill="white"/>
</svg>
