<svg width="28" height="28" viewBox="0 0 28 28" fill="none" xmlns="http://www.w3.org/2000/svg">
<path d="M9.33338 3.73328C8.08894 3.73328 7.18234 4.35671 6.48234 4.82338C5.78234 5.29005 5.28894 5.59994 4.66672 5.59994C4.54304 5.59819 4.42025 5.62104 4.30548 5.66716C4.19071 5.71328 4.08625 5.78175 3.99817 5.86859C3.91009 5.95544 3.84015 6.05892 3.79241 6.17302C3.74468 6.28713 3.72009 6.40959 3.72009 6.53328C3.72009 6.65697 3.74468 6.77942 3.79241 6.89353C3.84015 7.00764 3.91009 7.11112 3.99817 7.19796C4.08625 7.2848 4.19071 7.35327 4.30548 7.39939C4.42025 7.44551 4.54304 7.46836 4.66672 7.46661C5.91116 7.46661 6.81776 6.84317 7.51776 6.37651C8.21776 5.90984 8.71116 5.59994 9.33338 5.59994C9.95561 5.59994 10.449 5.90984 11.149 6.37651C11.849 6.84317 12.7556 7.46661 14.0001 7.46661C15.2445 7.46661 16.1511 6.84317 16.8511 6.37651C17.5511 5.90984 18.0445 5.59994 18.6667 5.59994C19.2889 5.59994 19.7823 5.90984 20.4823 6.37651C21.1823 6.84317 22.0889 7.46661 23.3334 7.46661C23.4571 7.46836 23.5799 7.44551 23.6946 7.39939C23.8094 7.35327 23.9139 7.2848 24.0019 7.19796C24.09 7.11112 24.16 7.00764 24.2077 6.89353C24.2554 6.77942 24.28 6.65697 24.28 6.53328C24.28 6.40959 24.2554 6.28713 24.2077 6.17302C24.16 6.05892 24.09 5.95544 24.0019 5.86859C23.9139 5.78175 23.8094 5.71328 23.6946 5.66716C23.5799 5.62104 23.4571 5.59819 23.3334 5.59994C22.7112 5.59994 22.2178 5.29005 21.5178 4.82338C20.8178 4.35671 19.9112 3.73328 18.6667 3.73328C17.4223 3.73328 16.5157 4.35671 15.8157 4.82338C15.1157 5.29005 14.6223 5.59994 14.0001 5.59994C13.3778 5.59994 12.8844 5.29005 12.1844 4.82338C11.4844 4.35671 10.5778 3.73328 9.33338 3.73328ZM9.33338 9.33328C8.08894 9.33328 7.18234 9.95671 6.48234 10.4234C5.78234 10.89 5.28894 11.1999 4.66672 11.1999C4.54304 11.1982 4.42025 11.221 4.30548 11.2672C4.19071 11.3133 4.08625 11.3818 3.99817 11.4686C3.91009 11.5554 3.84015 11.6589 3.79241 11.773C3.74468 11.8871 3.72009 12.0096 3.72009 12.1333C3.72009 12.257 3.74468 12.3794 3.79241 12.4935C3.84015 12.6076 3.91009 12.7111 3.99817 12.798C4.08625 12.8848 4.19071 12.9533 4.30548 12.9994C4.42025 13.0455 4.54304 13.0684 4.66672 13.0666C5.91116 13.0666 6.81776 12.4432 7.51776 11.9765C8.21776 11.5098 8.71116 11.1999 9.33338 11.1999C9.95561 11.1999 10.449 11.5098 11.149 11.9765C11.849 12.4432 12.7556 13.0666 14.0001 13.0666C15.2445 13.0666 16.1511 12.4432 16.8511 11.9765C17.5511 11.5098 18.0445 11.1999 18.6667 11.1999C19.2889 11.1999 19.7823 11.5098 20.4823 11.9765C21.1823 12.4432 22.0889 13.0666 23.3334 13.0666C23.4571 13.0684 23.5799 13.0455 23.6946 12.9994C23.8094 12.9533 23.9139 12.8848 24.0019 12.798C24.09 12.7111 24.16 12.6076 24.2077 12.4935C24.2554 12.3794 24.28 12.257 24.28 12.1333C24.28 12.0096 24.2554 11.8871 24.2077 11.773C24.16 11.6589 24.09 11.5554 24.0019 11.4686C23.9139 11.3818 23.8094 11.3133 23.6946 11.2672C23.5799 11.221 23.4571 11.1982 23.3334 11.1999C22.7112 11.1999 22.2178 10.89 21.5178 10.4234C20.8178 9.95671 19.9112 9.33328 18.6667 9.33328C17.4223 9.33328 16.5157 9.95671 15.8157 10.4234C15.1157 10.89 14.6223 11.1999 14.0001 11.1999C13.3778 11.1999 12.8844 10.89 12.1844 10.4234C11.4844 9.95671 10.5778 9.33328 9.33338 9.33328ZM9.33338 14.9333C8.08894 14.9333 7.18234 15.5567 6.48234 16.0234C5.78234 16.49 5.28894 16.7999 4.66672 16.7999C4.54304 16.7982 4.42025 16.821 4.30548 16.8672C4.19071 16.9133 4.08625 16.9818 3.99817 17.0686C3.91009 17.1554 3.84015 17.2589 3.79241 17.373C3.74468 17.4871 3.72009 17.6096 3.72009 17.7333C3.72009 17.857 3.74468 17.9794 3.79241 18.0935C3.84015 18.2076 3.91009 18.3111 3.99817 18.398C4.08625 18.4848 4.19071 18.5533 4.30548 18.5994C4.42025 18.6455 4.54304 18.6684 4.66672 18.6666C5.91116 18.6666 6.81776 18.0432 7.51776 17.5765C8.21776 17.1098 8.71116 16.7999 9.33338 16.7999C9.95561 16.7999 10.449 17.1098 11.149 17.5765C11.849 18.0432 12.7556 18.6666 14.0001 18.6666C15.2445 18.6666 16.1511 18.0432 16.8511 17.5765C17.5511 17.1098 18.0445 16.7999 18.6667 16.7999C19.2889 16.7999 19.7823 17.1098 20.4823 17.5765C21.1823 18.0432 22.0889 18.6666 23.3334 18.6666C23.4571 18.6684 23.5799 18.6455 23.6946 18.5994C23.8094 18.5533 23.9139 18.4848 24.0019 18.398C24.09 18.3111 24.16 18.2076 24.2077 18.0935C24.2554 17.9794 24.28 17.857 24.28 17.7333C24.28 17.6096 24.2554 17.4871 24.2077 17.373C24.16 17.2589 24.09 17.1554 24.0019 17.0686C23.9139 16.9818 23.8094 16.9133 23.6946 16.8672C23.5799 16.821 23.4571 16.7982 23.3334 16.7999C22.7112 16.7999 22.2178 16.49 21.5178 16.0234C20.8178 15.5567 19.9112 14.9333 18.6667 14.9333C17.4223 14.9333 16.5157 15.5567 15.8157 16.0234C15.1157 16.49 14.6223 16.7999 14.0001 16.7999C13.3778 16.7999 12.8844 16.49 12.1844 16.0234C11.4844 15.5567 10.5778 14.9333 9.33338 14.9333ZM9.33338 20.5333C8.08894 20.5333 7.18234 21.1567 6.48234 21.6234C5.78234 22.09 5.28894 22.3999 4.66672 22.3999C4.54304 22.3982 4.42025 22.421 4.30548 22.4672C4.19071 22.5133 4.08625 22.5818 3.99817 22.6686C3.91009 22.7554 3.84015 22.8589 3.79241 22.973C3.74468 23.0871 3.72009 23.2096 3.72009 23.3333C3.72009 23.457 3.74468 23.5794 3.79241 23.6935C3.84015 23.8076 3.91009 23.9111 3.99817 23.998C4.08625 24.0848 4.19071 24.1533 4.30548 24.1994C4.42025 24.2455 4.54304 24.2684 4.66672 24.2666C5.91116 24.2666 6.81776 23.6432 7.51776 23.1765C8.21776 22.7098 8.71116 22.3999 9.33338 22.3999C9.95561 22.3999 10.449 22.7098 11.149 23.1765C11.849 23.6432 12.7556 24.2666 14.0001 24.2666C15.2445 24.2666 16.1511 23.6432 16.8511 23.1765C17.5511 22.7098 18.0445 22.3999 18.6667 22.3999C19.2889 22.3999 19.7823 22.7098 20.4823 23.1765C21.1823 23.6432 22.0889 24.2666 23.3334 24.2666C23.4571 24.2684 23.5799 24.2455 23.6946 24.1994C23.8094 24.1533 23.9139 24.0848 24.0019 23.998C24.09 23.9111 24.16 23.8076 24.2077 23.6935C24.2554 23.5794 24.28 23.457 24.28 23.3333C24.28 23.2096 24.2554 23.0871 24.2077 22.973C24.16 22.8589 24.09 22.7554 24.0019 22.6686C23.9139 22.5818 23.8094 22.5133 23.6946 22.4672C23.5799 22.421 23.4571 22.3982 23.3334 22.3999C22.7112 22.3999 22.2178 22.09 21.5178 21.6234C20.8178 21.1567 19.9112 20.5333 18.6667 20.5333C17.4223 20.5333 16.5157 21.1567 15.8157 21.6234C15.1157 22.09 14.6223 22.3999 14.0001 22.3999C13.3778 22.3999 12.8844 22.09 12.1844 21.6234C11.4844 21.1567 10.5778 20.5333 9.33338 20.5333Z" fill="white"/>
</svg>
