<svg width="21" height="19" viewBox="0 0 21 19" fill="none" xmlns="http://www.w3.org/2000/svg">
<path d="M14.6169 0.0303064C16.1578 0.145496 17.6062 0.80989 18.6987 1.90266C19.2982 2.50182 19.7738 3.21323 20.0983 3.99627C20.4228 4.7793 20.5898 5.6186 20.5898 6.4662C20.5898 7.31381 20.4228 8.1531 20.0983 8.93614C19.7738 9.71917 19.2982 10.4306 18.6987 11.0297L11.0327 18.6957C10.9371 18.7921 10.8233 18.8687 10.6979 18.9209C10.5725 18.9731 10.438 19 10.3022 19C10.1663 19 10.0318 18.9731 9.90644 18.9209C9.78105 18.8687 9.66725 18.7921 9.57159 18.6957L1.90567 11.0297C0.747877 9.88002 0.0687095 8.33433 0.00493439 6.70391C-0.0588407 5.07349 0.497514 3.47947 1.56196 2.24283C2.62641 1.00619 4.11988 0.218798 5.74163 0.0392135C7.36339 -0.140371 8.99295 0.301192 10.3022 1.27498C11.545 0.356783 13.076 -0.0848832 14.6169 0.0303064Z" fill="#EB5757"/>
</svg>
