<svg width="28" height="28" viewBox="0 0 28 28" fill="none" xmlns="http://www.w3.org/2000/svg">
<path d="M12.6 2.80005C11.815 2.80076 11.0565 3.08413 10.4633 3.59831C9.87012 4.11249 9.48193 4.82309 9.36979 5.60005C9.35764 5.59997 9.34548 5.59997 9.33333 5.60005C8.59072 5.60005 7.87853 5.89505 7.35343 6.42015C6.82833 6.94525 6.53333 7.65744 6.53333 8.40005C6.53333 9.14265 6.82833 9.85485 7.35343 10.3799C7.87853 10.9051 8.59072 11.2 9.33333 11.2H19.6C20.0951 11.2 20.5699 11.0034 20.9199 10.6533C21.27 10.3032 21.4667 9.82845 21.4667 9.33338C21.4667 8.83831 21.27 8.36352 20.9199 8.01345C20.5699 7.66338 20.0951 7.46672 19.6 7.46672H19.5964C19.5964 6.72474 19.3019 6.0131 18.7775 5.4881C18.2532 4.96311 17.542 4.66768 16.8 4.66672C16.4046 4.66746 16.0138 4.75196 15.6534 4.91463C15.4194 4.29379 15.0019 3.75892 14.4565 3.38117C13.911 3.00343 13.2635 2.80074 12.6 2.80005ZM17.7333 12.1334C17.7333 12.1334 16.8 13.4848 16.8 14C16.8 14.5152 17.2181 14.9334 17.7333 14.9334C18.2485 14.9334 18.6667 14.5152 18.6667 14C18.6667 13.4848 17.7333 12.1334 17.7333 12.1334ZM10.2667 13.0667C10.2667 13.0667 9.33333 14.4182 9.33333 14.9334C9.33333 15.4486 9.75146 15.8667 10.2667 15.8667C10.7819 15.8667 11.2 15.4486 11.2 14.9334C11.2 14.4182 10.2667 13.0667 10.2667 13.0667ZM14 14C14 14 13.0667 15.3515 13.0667 15.8667C13.0667 16.3819 13.4848 16.8 14 16.8C14.5152 16.8 14.9333 16.3819 14.9333 15.8667C14.9333 15.3515 14 14 14 14ZM2.74166 14.9206C2.60342 14.9287 2.46871 14.9674 2.34728 15.034C2.22585 15.1005 2.12075 15.1933 2.03961 15.3055C1.95846 15.4177 1.9033 15.5465 1.87811 15.6827C1.85293 15.8189 1.85836 15.9589 1.89401 16.0928L3.40703 22.1448C3.40703 22.1454 3.40703 22.1461 3.40703 22.1467C3.71803 23.3878 4.84457 24.2667 6.125 24.2667H21.8768C23.1572 24.2667 24.2832 23.3868 24.593 22.1448L26.106 16.0928C26.1357 15.9738 26.1417 15.8501 26.1236 15.7288C26.1055 15.6075 26.0637 15.4909 26.0006 15.3858C25.9375 15.2806 25.8542 15.189 25.7556 15.116C25.6571 15.043 25.5451 14.9902 25.4261 14.9605C25.3071 14.9308 25.1834 14.9248 25.0621 14.943C24.9408 14.9611 24.8243 15.0029 24.7192 15.0661C24.614 15.1292 24.5224 15.2125 24.4494 15.3111C24.3765 15.4097 24.3237 15.5217 24.294 15.6407L23.625 18.3185C22.9892 18.5048 22.2387 18.6667 21.4667 18.6667C19.6 18.6667 17.7333 17.7334 17.7333 17.7334C17.7333 17.7334 15.8667 18.6667 14 18.6667C12.1333 18.6667 10.2667 17.7334 10.2667 17.7334C10.2667 17.7334 8.4 18.6667 6.53333 18.6667C5.76125 18.6667 5.01086 18.5046 4.375 18.3185L3.70599 15.6407C3.65948 15.4419 3.54908 15.2638 3.3917 15.1338C3.23431 15.0037 3.03863 14.9288 2.83463 14.9206C2.80366 14.9191 2.77263 14.9191 2.74166 14.9206Z" fill="white"/>
</svg>
